
<svg width="187px" height="49px" viewBox="0 0 187 49" version="1.1" xmlns="http://www.w3.org/2000/svg" xmlns:xlink="http://www.w3.org/1999/xlink">
    <defs>
        <radialGradient cx="0%" cy="0%" fx="0%" fy="0%" r="378.184504%" gradientTransform="translate(0.000000,0.000000),scale(0.262035,1.000000),rotate(14.683376),translate(-0.000000,-0.000000)" id="radialGradient-1">
            <stop stop-color="#1279FB" offset="0%"></stop>
            <stop stop-color="#FB0B8F" offset="100%"></stop>
        </radialGradient>
        <path d="M11.462524,58.0185143 L0.22218514,20.6968416 C-0.605687118,17.9480297 0.951713662,15.0486059 3.70073714,14.2207974 C4.18693622,14.0743891 4.69196459,14 5.19973247,14 C9.30543351,14 12.8792616,16.8061428 13.8529185,20.7944162 L17.4208319,35.4092308 C18.1382166,38.0225772 18.7531086,40.5981924 19.2655262,43.1361538 C19.7779438,45.6741153 20.2543264,50.9384615 21.263945,50.9384615 C22.2735636,50.9384615 22.7627564,45.6741153 23.3007949,43.1361538 C23.8388334,40.5981924 24.4409151,38.0225772 25.107058,35.4092308 L28.6205641,20.581159 C29.5345526,16.7238476 32.97944,14 36.9438462,14 C39.7201745,14 41.9708334,16.2504856 41.9708334,19.0266003 C41.9708334,19.5175908 41.8988911,20.0059323 41.7572986,20.4760666 L30.4504679,58.0185143 C29.5597953,60.9758444 26.8360571,63 23.7472959,63 L18.165696,63 C15.0769348,63 12.3531966,60.9758444 11.462524,58.0185143 Z M50.987455,56 L50.987455,21 C50.987455,17.1340068 54.1217029,14 57.9879937,14 L79.5743598,14 C82.5722222,14 85.0024698,16.4300606 85.0024698,19.4276923 C85.0024698,22.425324 82.5722222,24.8553846 79.5743598,24.8553846 L68.4383722,24.8553846 C66.3148863,24.8553846 64.5934609,26.5766776 64.5934609,28.7 C64.5934609,30.8233224 66.3148863,32.5446154 68.4383722,32.5446154 L79.5743598,32.5446154 C82.5722222,32.5446154 85.0024698,34.974676 85.0024698,37.9723077 C85.0024698,40.9699394 82.5722222,43.4 79.5743598,43.4 L68.9661051,43.4 C66.5511604,43.4 64.5934609,45.3575488 64.5934609,47.7723077 C64.5934609,50.1870666 66.5511604,52.1446154 68.9661051,52.1446154 L102.563732,52.1446154 C105.561594,52.1446154 107.991842,54.574676 107.991842,57.5723077 C107.991842,60.5699394 105.561594,63 102.563732,63 L57.9879937,63 C54.1217029,63 50.987455,59.8659932 50.987455,56 Z M94.9908414,36.8580235 L94.9908414,21 C94.9908414,17.1340068 98.1250893,14 101.99138,14 C106.28217,14 110.205099,16.4228148 112.126125,20.2592542 L123.947615,43.8676923 C123.854407,43.1022009 123.843105,35.3214502 123.91371,20.5254403 C123.93091,16.9165135 126.861599,14 130.470845,14 C134.073525,14 136.994074,16.9203245 136.994074,20.5227273 L136.994074,56 C136.994074,59.8659932 133.859826,63 129.993535,63 C125.682785,63 121.721141,60.6300886 119.68282,56.8319841 L108.0373,35.1323077 L108.0373,36.8580235 C108.0373,40.4604263 105.116751,43.3807508 101.514071,43.3807508 C97.9113906,43.3807508 94.9908414,40.4604263 94.9908414,36.8580235 Z M147.99492,53 L147.99492,24 C147.99492,18.4771525 152.472418,14 157.99569,14 L162.231757,14 C165.889852,14 169.238936,14.4523032 172.279109,15.3569231 C175.319282,16.261543 177.926871,17.6938364 180.101954,19.6538462 C182.277037,21.613856 183.970116,24.1266513 185.181242,27.1923077 C186.392368,30.257964 186.997922,33.9517733 186.997922,38.2738462 C186.997922,42.595919 186.404726,46.3148562 185.218317,49.4307692 C184.031908,52.5466822 182.363546,55.1097335 180.213179,57.12 C178.062813,59.1302665 175.517015,60.6128157 172.575709,61.5676923 C169.634404,62.5225689 166.433619,63 162.973259,63 L157.99569,63 C152.472418,63 147.99492,58.5228475 147.99492,53 Z M160.995921,44.0076046 C160.995921,46.7648284 163.231265,49 165.988701,49 C167.142154,49 168.209082,48.7953867 169.189517,48.3861538 C170.169953,47.976921 171.018552,47.3415428 171.735341,46.48 C172.452129,45.6184572 173.00825,44.5200067 173.40372,43.1846154 C173.79919,41.8492241 173.996921,40.2553939 173.996921,38.4030769 C173.996921,36.55076 173.79507,34.9676989 173.391362,33.6538462 C172.987653,32.3399934 172.423293,31.2630811 171.698265,30.4230769 C170.973238,29.5830727 170.104041,28.9692327 169.09065,28.5815385 C168.077259,28.1938442 166.960898,28 165.741533,28 C163.120604,28 160.995921,30.1245195 160.995921,32.7452471 L160.995921,44.0076046 Z" id="path-2"></path>
        <filter x="-1.1%" y="-4.1%" width="102.1%" height="108.2%" filterUnits="objectBoundingBox" id="filter-3">
            <feGaussianBlur stdDeviation="1" in="SourceAlpha" result="shadowBlurInner1"></feGaussianBlur>
            <feOffset dx="0" dy="2" in="shadowBlurInner1" result="shadowOffsetInner1"></feOffset>
            <feComposite in="shadowOffsetInner1" in2="SourceAlpha" operator="arithmetic" k2="-1" k3="1" result="shadowInnerInner1"></feComposite>
            <feColorMatrix values="0 0 0 0 0   0 0 0 0 0   0 0 0 0 0  0 0 0 0.245216259 0" type="matrix" in="shadowInnerInner1"></feColorMatrix>
        </filter>
    </defs>
    <g id="Index" stroke="none" stroke-width="1" fill="none" fill-rule="evenodd">
        <g transform="translate(-99.000000, -60.000000)" id="top-nav">
            <g transform="translate(1.000000, 0.000000)">
                <g id="Group-6" transform="translate(98.000000, 46.000000)">
                    <g id="logo">
                        <use fill="url(#radialGradient-1)" fill-rule="evenodd" xlink:href="#path-2"></use>
                        <use fill="black" fill-opacity="1" filter="url(#filter-3)" xlink:href="#path-2"></use>
                    </g>
                </g>
            </g>
        </g>
    </g>
</svg>